<?xml version="1.0" encoding="utf-8"?>
<svg xmlns="http://www.w3.org/2000/svg" xmlns:xlink="http://www.w3.org/1999/xlink" width="528" height="336" viewBox="0 0 2112 1344">
<defs>
  <clipPath id="clip500">
    <rect x="0" y="0" width="2112" height="1344"/>
  </clipPath>
</defs>
<path clip-path="url(#clip500)" d="M0 1344 L2112 1344 L2112 2.13163e-14 L0 2.13163e-14  Z" fill="#ffffff" fill-rule="evenodd" fill-opacity="1"/>
<defs>
  <clipPath id="clip501">
    <rect x="422" y="0" width="1479" height="1344"/>
  </clipPath>
</defs>
<path clip-path="url(#clip500)" d="M362.927 1234.58 L2064.76 1234.58 L2064.76 47.2441 L362.927 47.2441  Z" fill="#ffffff" fill-rule="evenodd" fill-opacity="1"/>
<defs>
  <clipPath id="clip502">
    <rect x="362" y="47" width="1703" height="1188"/>
  </clipPath>
</defs>
<polyline clip-path="url(#clip502)" style="stroke:#000000; stroke-linecap:round; stroke-linejoin:round; stroke-width:2; stroke-opacity:0.1; fill:none" points="411.092,1234.58 411.092,47.2441 "/>
<polyline clip-path="url(#clip502)" style="stroke:#000000; stroke-linecap:round; stroke-linejoin:round; stroke-width:2; stroke-opacity:0.1; fill:none" points="808.056,1234.58 808.056,47.2441 "/>
<polyline clip-path="url(#clip502)" style="stroke:#000000; stroke-linecap:round; stroke-linejoin:round; stroke-width:2; stroke-opacity:0.1; fill:none" points="1209.43,1234.58 1209.43,47.2441 "/>
<polyline clip-path="url(#clip502)" style="stroke:#000000; stroke-linecap:round; stroke-linejoin:round; stroke-width:2; stroke-opacity:0.1; fill:none" points="1615.22,1234.58 1615.22,47.2441 "/>
<polyline clip-path="url(#clip502)" style="stroke:#000000; stroke-linecap:round; stroke-linejoin:round; stroke-width:2; stroke-opacity:0.1; fill:none" points="2021,1234.58 2021,47.2441 "/>
<polyline clip-path="url(#clip502)" style="stroke:#000000; stroke-linecap:round; stroke-linejoin:round; stroke-width:2; stroke-opacity:0.1; fill:none" points="362.927,1200.97 2064.76,1200.97 "/>
<polyline clip-path="url(#clip502)" style="stroke:#000000; stroke-linecap:round; stroke-linejoin:round; stroke-width:2; stroke-opacity:0.1; fill:none" points="362.927,850.935 2064.76,850.935 "/>
<polyline clip-path="url(#clip502)" style="stroke:#000000; stroke-linecap:round; stroke-linejoin:round; stroke-width:2; stroke-opacity:0.1; fill:none" points="362.927,500.896 2064.76,500.896 "/>
<polyline clip-path="url(#clip502)" style="stroke:#000000; stroke-linecap:round; stroke-linejoin:round; stroke-width:2; stroke-opacity:0.1; fill:none" points="362.927,150.856 2064.76,150.856 "/>
<polyline clip-path="url(#clip500)" style="stroke:#000000; stroke-linecap:round; stroke-linejoin:round; stroke-width:4; stroke-opacity:1; fill:none" points="362.927,1234.58 2064.76,1234.58 "/>
<polyline clip-path="url(#clip500)" style="stroke:#000000; stroke-linecap:round; stroke-linejoin:round; stroke-width:4; stroke-opacity:1; fill:none" points="411.092,1234.58 411.092,1215.68 "/>
<polyline clip-path="url(#clip500)" style="stroke:#000000; stroke-linecap:round; stroke-linejoin:round; stroke-width:4; stroke-opacity:1; fill:none" points="808.056,1234.58 808.056,1215.68 "/>
<polyline clip-path="url(#clip500)" style="stroke:#000000; stroke-linecap:round; stroke-linejoin:round; stroke-width:4; stroke-opacity:1; fill:none" points="1209.43,1234.58 1209.43,1215.68 "/>
<polyline clip-path="url(#clip500)" style="stroke:#000000; stroke-linecap:round; stroke-linejoin:round; stroke-width:4; stroke-opacity:1; fill:none" points="1615.22,1234.58 1615.22,1215.68 "/>
<polyline clip-path="url(#clip500)" style="stroke:#000000; stroke-linecap:round; stroke-linejoin:round; stroke-width:4; stroke-opacity:1; fill:none" points="2021,1234.58 2021,1215.68 "/>
<path clip-path="url(#clip500)" d="M278.801 1290.74 L286.44 1290.74 L286.44 1264.37 L278.13 1266.04 L278.13 1261.78 L286.394 1260.11 L291.07 1260.11 L291.07 1290.74 L298.709 1290.74 L298.709 1294.67 L278.801 1294.67 L278.801 1290.74 Z" fill="#000000" fill-rule="nonzero" fill-opacity="1" /><path clip-path="url(#clip500)" d="M308.292 1293.96 L308.292 1289.7 Q310.051 1290.53 311.857 1290.97 Q313.662 1291.41 315.398 1291.41 Q320.028 1291.41 322.458 1288.31 Q324.912 1285.18 325.259 1278.84 Q323.917 1280.83 321.857 1281.9 Q319.796 1282.96 317.296 1282.96 Q312.111 1282.96 309.079 1279.84 Q306.07 1276.69 306.07 1271.25 Q306.07 1265.92 309.218 1262.71 Q312.366 1259.49 317.597 1259.49 Q323.593 1259.49 326.741 1264.1 Q329.912 1268.68 329.912 1277.43 Q329.912 1285.6 326.023 1290.48 Q322.158 1295.35 315.607 1295.35 Q313.847 1295.35 312.042 1295 Q310.236 1294.65 308.292 1293.96 M317.597 1279.3 Q320.746 1279.3 322.574 1277.15 Q324.426 1275 324.426 1271.25 Q324.426 1267.52 322.574 1265.37 Q320.746 1263.19 317.597 1263.19 Q314.449 1263.19 312.597 1265.37 Q310.769 1267.52 310.769 1271.25 Q310.769 1275 312.597 1277.15 Q314.449 1279.3 317.597 1279.3 Z" fill="#000000" fill-rule="nonzero" fill-opacity="1" /><path clip-path="url(#clip500)" d="M348.315 1278.26 Q344.982 1278.26 343.06 1280.05 Q341.162 1281.83 341.162 1284.95 Q341.162 1288.08 343.06 1289.86 Q344.982 1291.64 348.315 1291.64 Q351.648 1291.64 353.569 1289.86 Q355.491 1288.05 355.491 1284.95 Q355.491 1281.83 353.569 1280.05 Q351.671 1278.26 348.315 1278.26 M343.639 1276.27 Q340.63 1275.53 338.94 1273.47 Q337.273 1271.41 337.273 1268.45 Q337.273 1264.3 340.213 1261.9 Q343.176 1259.49 348.315 1259.49 Q353.477 1259.49 356.417 1261.9 Q359.356 1264.3 359.356 1268.45 Q359.356 1271.41 357.667 1273.47 Q356 1275.53 353.014 1276.27 Q356.394 1277.06 358.268 1279.35 Q360.167 1281.64 360.167 1284.95 Q360.167 1289.98 357.088 1292.66 Q354.032 1295.35 348.315 1295.35 Q342.597 1295.35 339.519 1292.66 Q336.463 1289.98 336.463 1284.95 Q336.463 1281.64 338.361 1279.35 Q340.259 1277.06 343.639 1276.27 M341.926 1268.89 Q341.926 1271.57 343.593 1273.08 Q345.282 1274.58 348.315 1274.58 Q351.324 1274.58 353.014 1273.08 Q354.727 1271.57 354.727 1268.89 Q354.727 1266.2 353.014 1264.7 Q351.324 1263.19 348.315 1263.19 Q345.282 1263.19 343.593 1264.7 Q341.926 1266.2 341.926 1268.89 Z" fill="#000000" fill-rule="nonzero" fill-opacity="1" /><path clip-path="url(#clip500)" d="M369.287 1290.74 L376.926 1290.74 L376.926 1264.37 L368.616 1266.04 L368.616 1261.78 L376.88 1260.11 L381.555 1260.11 L381.555 1290.74 L389.194 1290.74 L389.194 1294.67 L369.287 1294.67 L369.287 1290.74 Z" fill="#000000" fill-rule="nonzero" fill-opacity="1" /><path clip-path="url(#clip500)" d="M395.884 1279.79 L408.361 1279.79 L408.361 1283.59 L395.884 1283.59 L395.884 1279.79 Z" fill="#000000" fill-rule="nonzero" fill-opacity="1" /><path clip-path="url(#clip500)" d="M425.745 1263.19 Q422.134 1263.19 420.305 1266.76 Q418.5 1270.3 418.5 1277.43 Q418.5 1284.54 420.305 1288.1 Q422.134 1291.64 425.745 1291.64 Q429.379 1291.64 431.185 1288.1 Q433.013 1284.54 433.013 1277.43 Q433.013 1270.3 431.185 1266.76 Q429.379 1263.19 425.745 1263.19 M425.745 1259.49 Q431.555 1259.49 434.611 1264.1 Q437.689 1268.68 437.689 1277.43 Q437.689 1286.16 434.611 1290.76 Q431.555 1295.35 425.745 1295.35 Q419.935 1295.35 416.856 1290.76 Q413.801 1286.16 413.801 1277.43 Q413.801 1268.68 416.856 1264.1 Q419.935 1259.49 425.745 1259.49 Z" fill="#000000" fill-rule="nonzero" fill-opacity="1" /><path clip-path="url(#clip500)" d="M446.717 1290.74 L454.356 1290.74 L454.356 1264.37 L446.046 1266.04 L446.046 1261.78 L454.31 1260.11 L458.986 1260.11 L458.986 1290.74 L466.624 1290.74 L466.624 1294.67 L446.717 1294.67 L446.717 1290.74 Z" fill="#000000" fill-rule="nonzero" fill-opacity="1" /><path clip-path="url(#clip500)" d="M473.314 1279.79 L485.791 1279.79 L485.791 1283.59 L473.314 1283.59 L473.314 1279.79 Z" fill="#000000" fill-rule="nonzero" fill-opacity="1" /><path clip-path="url(#clip500)" d="M503.175 1263.19 Q499.564 1263.19 497.735 1266.76 Q495.93 1270.3 495.93 1277.43 Q495.93 1284.54 497.735 1288.1 Q499.564 1291.64 503.175 1291.64 Q506.809 1291.64 508.615 1288.1 Q510.444 1284.54 510.444 1277.43 Q510.444 1270.3 508.615 1266.76 Q506.809 1263.19 503.175 1263.19 M503.175 1259.49 Q508.985 1259.49 512.041 1264.1 Q515.12 1268.68 515.12 1277.43 Q515.12 1286.16 512.041 1290.76 Q508.985 1295.35 503.175 1295.35 Q497.365 1295.35 494.286 1290.76 Q491.231 1286.16 491.231 1277.43 Q491.231 1268.68 494.286 1264.1 Q497.365 1259.49 503.175 1259.49 Z" fill="#000000" fill-rule="nonzero" fill-opacity="1" /><path clip-path="url(#clip500)" d="M524.147 1290.74 L531.786 1290.74 L531.786 1264.37 L523.476 1266.04 L523.476 1261.78 L531.74 1260.11 L536.416 1260.11 L536.416 1290.74 L544.055 1290.74 L544.055 1294.67 L524.147 1294.67 L524.147 1290.74 Z" fill="#000000" fill-rule="nonzero" fill-opacity="1" /><path clip-path="url(#clip500)" d="M675.765 1290.74 L683.404 1290.74 L683.404 1264.37 L675.094 1266.04 L675.094 1261.78 L683.358 1260.11 L688.034 1260.11 L688.034 1290.74 L695.673 1290.74 L695.673 1294.67 L675.765 1294.67 L675.765 1290.74 Z" fill="#000000" fill-rule="nonzero" fill-opacity="1" /><path clip-path="url(#clip500)" d="M705.256 1293.96 L705.256 1289.7 Q707.015 1290.53 708.821 1290.97 Q710.626 1291.41 712.362 1291.41 Q716.992 1291.41 719.422 1288.31 Q721.876 1285.18 722.223 1278.84 Q720.881 1280.83 718.821 1281.9 Q716.76 1282.96 714.26 1282.96 Q709.075 1282.96 706.043 1279.84 Q703.034 1276.69 703.034 1271.25 Q703.034 1265.92 706.182 1262.71 Q709.33 1259.49 714.561 1259.49 Q720.557 1259.49 723.705 1264.1 Q726.876 1268.68 726.876 1277.43 Q726.876 1285.6 722.987 1290.48 Q719.122 1295.35 712.571 1295.35 Q710.811 1295.35 709.006 1295 Q707.2 1294.65 705.256 1293.96 M714.561 1279.3 Q717.71 1279.3 719.538 1277.15 Q721.39 1275 721.39 1271.25 Q721.39 1267.52 719.538 1265.37 Q717.71 1263.19 714.561 1263.19 Q711.413 1263.19 709.561 1265.37 Q707.733 1267.52 707.733 1271.25 Q707.733 1275 709.561 1277.15 Q711.413 1279.3 714.561 1279.3 Z" fill="#000000" fill-rule="nonzero" fill-opacity="1" /><path clip-path="url(#clip500)" d="M745.279 1278.26 Q741.945 1278.26 740.024 1280.05 Q738.126 1281.83 738.126 1284.95 Q738.126 1288.08 740.024 1289.86 Q741.945 1291.64 745.279 1291.64 Q748.612 1291.64 750.533 1289.86 Q752.455 1288.05 752.455 1284.95 Q752.455 1281.83 750.533 1280.05 Q748.635 1278.26 745.279 1278.26 M740.603 1276.27 Q737.594 1275.53 735.904 1273.47 Q734.237 1271.41 734.237 1268.45 Q734.237 1264.3 737.177 1261.9 Q740.14 1259.49 745.279 1259.49 Q750.441 1259.49 753.381 1261.9 Q756.32 1264.3 756.32 1268.45 Q756.32 1271.41 754.631 1273.47 Q752.964 1275.53 749.978 1276.27 Q753.357 1277.06 755.232 1279.35 Q757.131 1281.64 757.131 1284.95 Q757.131 1289.98 754.052 1292.66 Q750.996 1295.35 745.279 1295.35 Q739.561 1295.35 736.483 1292.66 Q733.427 1289.98 733.427 1284.95 Q733.427 1281.64 735.325 1279.35 Q737.223 1277.06 740.603 1276.27 M738.89 1268.89 Q738.89 1271.57 740.557 1273.08 Q742.246 1274.58 745.279 1274.58 Q748.288 1274.58 749.978 1273.08 Q751.691 1271.57 751.691 1268.89 Q751.691 1266.2 749.978 1264.7 Q748.288 1263.19 745.279 1263.19 Q742.246 1263.19 740.557 1264.7 Q738.89 1266.2 738.89 1268.89 Z" fill="#000000" fill-rule="nonzero" fill-opacity="1" /><path clip-path="url(#clip500)" d="M766.251 1290.74 L773.89 1290.74 L773.89 1264.37 L765.58 1266.04 L765.58 1261.78 L773.843 1260.11 L778.519 1260.11 L778.519 1290.74 L786.158 1290.74 L786.158 1294.67 L766.251 1294.67 L766.251 1290.74 Z" fill="#000000" fill-rule="nonzero" fill-opacity="1" /><path clip-path="url(#clip500)" d="M792.848 1279.79 L805.325 1279.79 L805.325 1283.59 L792.848 1283.59 L792.848 1279.79 Z" fill="#000000" fill-rule="nonzero" fill-opacity="1" /><path clip-path="url(#clip500)" d="M822.709 1263.19 Q819.098 1263.19 817.269 1266.76 Q815.464 1270.3 815.464 1277.43 Q815.464 1284.54 817.269 1288.1 Q819.098 1291.64 822.709 1291.64 Q826.343 1291.64 828.149 1288.1 Q829.977 1284.54 829.977 1277.43 Q829.977 1270.3 828.149 1266.76 Q826.343 1263.19 822.709 1263.19 M822.709 1259.49 Q828.519 1259.49 831.575 1264.1 Q834.653 1268.68 834.653 1277.43 Q834.653 1286.16 831.575 1290.76 Q828.519 1295.35 822.709 1295.35 Q816.899 1295.35 813.82 1290.76 Q810.765 1286.16 810.765 1277.43 Q810.765 1268.68 813.82 1264.1 Q816.899 1259.49 822.709 1259.49 Z" fill="#000000" fill-rule="nonzero" fill-opacity="1" /><path clip-path="url(#clip500)" d="M855.718 1264.19 L843.913 1282.64 L855.718 1282.64 L855.718 1264.19 M854.491 1260.11 L860.371 1260.11 L860.371 1282.64 L865.301 1282.64 L865.301 1286.53 L860.371 1286.53 L860.371 1294.67 L855.718 1294.67 L855.718 1286.53 L840.116 1286.53 L840.116 1282.01 L854.491 1260.11 Z" fill="#000000" fill-rule="nonzero" fill-opacity="1" /><path clip-path="url(#clip500)" d="M870.278 1279.79 L882.755 1279.79 L882.755 1283.59 L870.278 1283.59 L870.278 1279.79 Z" fill="#000000" fill-rule="nonzero" fill-opacity="1" /><path clip-path="url(#clip500)" d="M900.139 1263.19 Q896.528 1263.19 894.699 1266.76 Q892.894 1270.3 892.894 1277.43 Q892.894 1284.54 894.699 1288.1 Q896.528 1291.64 900.139 1291.64 Q903.773 1291.64 905.579 1288.1 Q907.408 1284.54 907.408 1277.43 Q907.408 1270.3 905.579 1266.76 Q903.773 1263.19 900.139 1263.19 M900.139 1259.49 Q905.949 1259.49 909.005 1264.1 Q912.083 1268.68 912.083 1277.43 Q912.083 1286.16 909.005 1290.76 Q905.949 1295.35 900.139 1295.35 Q894.329 1295.35 891.25 1290.76 Q888.195 1286.16 888.195 1277.43 Q888.195 1268.68 891.25 1264.1 Q894.329 1259.49 900.139 1259.49 Z" fill="#000000" fill-rule="nonzero" fill-opacity="1" /><path clip-path="url(#clip500)" d="M921.111 1290.74 L928.75 1290.74 L928.75 1264.37 L920.44 1266.04 L920.44 1261.78 L928.704 1260.11 L933.38 1260.11 L933.38 1290.74 L941.018 1290.74 L941.018 1294.67 L921.111 1294.67 L921.111 1290.74 Z" fill="#000000" fill-rule="nonzero" fill-opacity="1" /><path clip-path="url(#clip500)" d="M1077.14 1290.74 L1084.78 1290.74 L1084.78 1264.37 L1076.47 1266.04 L1076.47 1261.78 L1084.73 1260.11 L1089.41 1260.11 L1089.41 1290.74 L1097.05 1290.74 L1097.05 1294.67 L1077.14 1294.67 L1077.14 1290.74 Z" fill="#000000" fill-rule="nonzero" fill-opacity="1" /><path clip-path="url(#clip500)" d="M1106.63 1293.96 L1106.63 1289.7 Q1108.39 1290.53 1110.2 1290.97 Q1112 1291.41 1113.74 1291.41 Q1118.37 1291.41 1120.8 1288.31 Q1123.25 1285.18 1123.6 1278.84 Q1122.26 1280.83 1120.2 1281.9 Q1118.14 1282.96 1115.64 1282.96 Q1110.45 1282.96 1107.42 1279.84 Q1104.41 1276.69 1104.41 1271.25 Q1104.41 1265.92 1107.56 1262.71 Q1110.7 1259.49 1115.94 1259.49 Q1121.93 1259.49 1125.08 1264.1 Q1128.25 1268.68 1128.25 1277.43 Q1128.25 1285.6 1124.36 1290.48 Q1120.5 1295.35 1113.95 1295.35 Q1112.19 1295.35 1110.38 1295 Q1108.57 1294.65 1106.63 1293.96 M1115.94 1279.3 Q1119.08 1279.3 1120.91 1277.15 Q1122.76 1275 1122.76 1271.25 Q1122.76 1267.52 1120.91 1265.37 Q1119.08 1263.19 1115.94 1263.19 Q1112.79 1263.19 1110.94 1265.37 Q1109.11 1267.52 1109.11 1271.25 Q1109.11 1275 1110.94 1277.15 Q1112.79 1279.3 1115.94 1279.3 Z" fill="#000000" fill-rule="nonzero" fill-opacity="1" /><path clip-path="url(#clip500)" d="M1146.65 1278.26 Q1143.32 1278.26 1141.4 1280.05 Q1139.5 1281.83 1139.5 1284.95 Q1139.5 1288.08 1141.4 1289.86 Q1143.32 1291.64 1146.65 1291.64 Q1149.99 1291.64 1151.91 1289.86 Q1153.83 1288.05 1153.83 1284.95 Q1153.83 1281.83 1151.91 1280.05 Q1150.01 1278.26 1146.65 1278.26 M1141.98 1276.27 Q1138.97 1275.53 1137.28 1273.47 Q1135.61 1271.41 1135.61 1268.45 Q1135.61 1264.3 1138.55 1261.9 Q1141.51 1259.49 1146.65 1259.49 Q1151.82 1259.49 1154.76 1261.9 Q1157.7 1264.3 1157.7 1268.45 Q1157.7 1271.41 1156.01 1273.47 Q1154.34 1275.53 1151.35 1276.27 Q1154.73 1277.06 1156.61 1279.35 Q1158.51 1281.64 1158.51 1284.95 Q1158.51 1289.98 1155.43 1292.66 Q1152.37 1295.35 1146.65 1295.35 Q1140.94 1295.35 1137.86 1292.66 Q1134.8 1289.98 1134.8 1284.95 Q1134.8 1281.64 1136.7 1279.35 Q1138.6 1277.06 1141.98 1276.27 M1140.26 1268.89 Q1140.26 1271.57 1141.93 1273.08 Q1143.62 1274.58 1146.65 1274.58 Q1149.66 1274.58 1151.35 1273.08 Q1153.07 1271.57 1153.07 1268.89 Q1153.07 1266.2 1151.35 1264.7 Q1149.66 1263.19 1146.65 1263.19 Q1143.62 1263.19 1141.93 1264.7 Q1140.26 1266.2 1140.26 1268.89 Z" fill="#000000" fill-rule="nonzero" fill-opacity="1" /><path clip-path="url(#clip500)" d="M1167.63 1290.74 L1175.26 1290.74 L1175.26 1264.37 L1166.95 1266.04 L1166.95 1261.78 L1175.22 1260.11 L1179.89 1260.11 L1179.89 1290.74 L1187.53 1290.74 L1187.53 1294.67 L1167.63 1294.67 L1167.63 1290.74 Z" fill="#000000" fill-rule="nonzero" fill-opacity="1" /><path clip-path="url(#clip500)" d="M1194.22 1279.79 L1206.7 1279.79 L1206.7 1283.59 L1194.22 1283.59 L1194.22 1279.79 Z" fill="#000000" fill-rule="nonzero" fill-opacity="1" /><path clip-path="url(#clip500)" d="M1224.08 1263.19 Q1220.47 1263.19 1218.64 1266.76 Q1216.84 1270.3 1216.84 1277.43 Q1216.84 1284.54 1218.64 1288.1 Q1220.47 1291.64 1224.08 1291.64 Q1227.72 1291.64 1229.52 1288.1 Q1231.35 1284.54 1231.35 1277.43 Q1231.35 1270.3 1229.52 1266.76 Q1227.72 1263.19 1224.08 1263.19 M1224.08 1259.49 Q1229.89 1259.49 1232.95 1264.1 Q1236.03 1268.68 1236.03 1277.43 Q1236.03 1286.16 1232.95 1290.76 Q1229.89 1295.35 1224.08 1295.35 Q1218.27 1295.35 1215.19 1290.76 Q1212.14 1286.16 1212.14 1277.43 Q1212.14 1268.68 1215.19 1264.1 Q1218.27 1259.49 1224.08 1259.49 Z" fill="#000000" fill-rule="nonzero" fill-opacity="1" /><path clip-path="url(#clip500)" d="M1243.06 1260.11 L1265.29 1260.11 L1265.29 1262.11 L1252.74 1294.67 L1247.86 1294.67 L1259.66 1264.05 L1243.06 1264.05 L1243.06 1260.11 Z" fill="#000000" fill-rule="nonzero" fill-opacity="1" /><path clip-path="url(#clip500)" d="M1271.65 1279.79 L1284.13 1279.79 L1284.13 1283.59 L1271.65 1283.59 L1271.65 1279.79 Z" fill="#000000" fill-rule="nonzero" fill-opacity="1" /><path clip-path="url(#clip500)" d="M1301.51 1263.19 Q1297.9 1263.19 1296.07 1266.76 Q1294.27 1270.3 1294.27 1277.43 Q1294.27 1284.54 1296.07 1288.1 Q1297.9 1291.64 1301.51 1291.64 Q1305.15 1291.64 1306.95 1288.1 Q1308.78 1284.54 1308.78 1277.43 Q1308.78 1270.3 1306.95 1266.76 Q1305.15 1263.19 1301.51 1263.19 M1301.51 1259.49 Q1307.32 1259.49 1310.38 1264.1 Q1313.46 1268.68 1313.46 1277.43 Q1313.46 1286.16 1310.38 1290.76 Q1307.32 1295.35 1301.51 1295.35 Q1295.7 1295.35 1292.62 1290.76 Q1289.57 1286.16 1289.57 1277.43 Q1289.57 1268.68 1292.62 1264.1 Q1295.7 1259.49 1301.51 1259.49 Z" fill="#000000" fill-rule="nonzero" fill-opacity="1" /><path clip-path="url(#clip500)" d="M1322.49 1290.74 L1330.12 1290.74 L1330.12 1264.37 L1321.81 1266.04 L1321.81 1261.78 L1330.08 1260.11 L1334.75 1260.11 L1334.75 1290.74 L1342.39 1290.74 L1342.39 1294.67 L1322.49 1294.67 L1322.49 1290.74 Z" fill="#000000" fill-rule="nonzero" fill-opacity="1" /><path clip-path="url(#clip500)" d="M1482.93 1290.74 L1490.56 1290.74 L1490.56 1264.37 L1482.25 1266.04 L1482.25 1261.78 L1490.52 1260.11 L1495.19 1260.11 L1495.19 1290.74 L1502.83 1290.74 L1502.83 1294.67 L1482.93 1294.67 L1482.93 1290.74 Z" fill="#000000" fill-rule="nonzero" fill-opacity="1" /><path clip-path="url(#clip500)" d="M1512.42 1293.96 L1512.42 1289.7 Q1514.18 1290.53 1515.98 1290.97 Q1517.79 1291.41 1519.52 1291.41 Q1524.15 1291.41 1526.58 1288.31 Q1529.04 1285.18 1529.38 1278.84 Q1528.04 1280.83 1525.98 1281.9 Q1523.92 1282.96 1521.42 1282.96 Q1516.24 1282.96 1513.2 1279.84 Q1510.19 1276.69 1510.19 1271.25 Q1510.19 1265.92 1513.34 1262.71 Q1516.49 1259.49 1521.72 1259.49 Q1527.72 1259.49 1530.86 1264.1 Q1534.04 1268.68 1534.04 1277.43 Q1534.04 1285.6 1530.15 1290.48 Q1526.28 1295.35 1519.73 1295.35 Q1517.97 1295.35 1516.17 1295 Q1514.36 1294.65 1512.42 1293.96 M1521.72 1279.3 Q1524.87 1279.3 1526.7 1277.15 Q1528.55 1275 1528.55 1271.25 Q1528.55 1267.52 1526.7 1265.37 Q1524.87 1263.19 1521.72 1263.19 Q1518.57 1263.19 1516.72 1265.37 Q1514.89 1267.52 1514.89 1271.25 Q1514.89 1275 1516.72 1277.15 Q1518.57 1279.3 1521.72 1279.3 Z" fill="#000000" fill-rule="nonzero" fill-opacity="1" /><path clip-path="url(#clip500)" d="M1552.44 1278.26 Q1549.11 1278.26 1547.18 1280.05 Q1545.29 1281.83 1545.29 1284.95 Q1545.29 1288.08 1547.18 1289.86 Q1549.11 1291.64 1552.44 1291.64 Q1555.77 1291.64 1557.69 1289.86 Q1559.61 1288.05 1559.61 1284.95 Q1559.61 1281.83 1557.69 1280.05 Q1555.8 1278.26 1552.44 1278.26 M1547.76 1276.27 Q1544.75 1275.53 1543.06 1273.47 Q1541.4 1271.41 1541.4 1268.45 Q1541.4 1264.3 1544.34 1261.9 Q1547.3 1259.49 1552.44 1259.49 Q1557.6 1259.49 1560.54 1261.9 Q1563.48 1264.3 1563.48 1268.45 Q1563.48 1271.41 1561.79 1273.47 Q1560.12 1275.53 1557.14 1276.27 Q1560.52 1277.06 1562.39 1279.35 Q1564.29 1281.64 1564.29 1284.95 Q1564.29 1289.98 1561.21 1292.66 Q1558.16 1295.35 1552.44 1295.35 Q1546.72 1295.35 1543.64 1292.66 Q1540.59 1289.98 1540.59 1284.95 Q1540.59 1281.64 1542.49 1279.35 Q1544.38 1277.06 1547.76 1276.27 M1546.05 1268.89 Q1546.05 1271.57 1547.72 1273.08 Q1549.41 1274.58 1552.44 1274.58 Q1555.45 1274.58 1557.14 1273.08 Q1558.85 1271.57 1558.85 1268.89 Q1558.85 1266.2 1557.14 1264.7 Q1555.45 1263.19 1552.44 1263.19 Q1549.41 1263.19 1547.72 1264.7 Q1546.05 1266.2 1546.05 1268.89 Z" fill="#000000" fill-rule="nonzero" fill-opacity="1" /><path clip-path="url(#clip500)" d="M1573.41 1290.74 L1581.05 1290.74 L1581.05 1264.37 L1572.74 1266.04 L1572.74 1261.78 L1581 1260.11 L1585.68 1260.11 L1585.68 1290.74 L1593.32 1290.74 L1593.32 1294.67 L1573.41 1294.67 L1573.41 1290.74 Z" fill="#000000" fill-rule="nonzero" fill-opacity="1" /><path clip-path="url(#clip500)" d="M1600.01 1279.79 L1612.48 1279.79 L1612.48 1283.59 L1600.01 1283.59 L1600.01 1279.79 Z" fill="#000000" fill-rule="nonzero" fill-opacity="1" /><path clip-path="url(#clip500)" d="M1620.68 1290.74 L1628.32 1290.74 L1628.32 1264.37 L1620.01 1266.04 L1620.01 1261.78 L1628.27 1260.11 L1632.95 1260.11 L1632.95 1290.74 L1640.59 1290.74 L1640.59 1294.67 L1620.68 1294.67 L1620.68 1290.74 Z" fill="#000000" fill-rule="nonzero" fill-opacity="1" /><path clip-path="url(#clip500)" d="M1660.03 1263.19 Q1656.42 1263.19 1654.59 1266.76 Q1652.79 1270.3 1652.79 1277.43 Q1652.79 1284.54 1654.59 1288.1 Q1656.42 1291.64 1660.03 1291.64 Q1663.67 1291.64 1665.47 1288.1 Q1667.3 1284.54 1667.3 1277.43 Q1667.3 1270.3 1665.47 1266.76 Q1663.67 1263.19 1660.03 1263.19 M1660.03 1259.49 Q1665.84 1259.49 1668.9 1264.1 Q1671.98 1268.68 1671.98 1277.43 Q1671.98 1286.16 1668.9 1290.76 Q1665.84 1295.35 1660.03 1295.35 Q1654.22 1295.35 1651.14 1290.76 Q1648.09 1286.16 1648.09 1277.43 Q1648.09 1268.68 1651.14 1264.1 Q1654.22 1259.49 1660.03 1259.49 Z" fill="#000000" fill-rule="nonzero" fill-opacity="1" /><path clip-path="url(#clip500)" d="M1677.44 1279.79 L1689.91 1279.79 L1689.91 1283.59 L1677.44 1283.59 L1677.44 1279.79 Z" fill="#000000" fill-rule="nonzero" fill-opacity="1" /><path clip-path="url(#clip500)" d="M1707.3 1263.19 Q1703.69 1263.19 1701.86 1266.76 Q1700.05 1270.3 1700.05 1277.43 Q1700.05 1284.54 1701.86 1288.1 Q1703.69 1291.64 1707.3 1291.64 Q1710.93 1291.64 1712.74 1288.1 Q1714.57 1284.54 1714.57 1277.43 Q1714.57 1270.3 1712.74 1266.76 Q1710.93 1263.19 1707.3 1263.19 M1707.3 1259.49 Q1713.11 1259.49 1716.16 1264.1 Q1719.24 1268.68 1719.24 1277.43 Q1719.24 1286.16 1716.16 1290.76 Q1713.11 1295.35 1707.3 1295.35 Q1701.49 1295.35 1698.41 1290.76 Q1695.35 1286.16 1695.35 1277.43 Q1695.35 1268.68 1698.41 1264.1 Q1701.49 1259.49 1707.3 1259.49 Z" fill="#000000" fill-rule="nonzero" fill-opacity="1" /><path clip-path="url(#clip500)" d="M1728.27 1290.74 L1735.91 1290.74 L1735.91 1264.37 L1727.6 1266.04 L1727.6 1261.78 L1735.86 1260.11 L1740.54 1260.11 L1740.54 1290.74 L1748.18 1290.74 L1748.18 1294.67 L1728.27 1294.67 L1728.27 1290.74 Z" fill="#000000" fill-rule="nonzero" fill-opacity="1" /><path clip-path="url(#clip500)" d="M1888.71 1290.74 L1896.35 1290.74 L1896.35 1264.37 L1888.04 1266.04 L1888.04 1261.78 L1896.3 1260.11 L1900.98 1260.11 L1900.98 1290.74 L1908.62 1290.74 L1908.62 1294.67 L1888.71 1294.67 L1888.71 1290.74 Z" fill="#000000" fill-rule="nonzero" fill-opacity="1" /><path clip-path="url(#clip500)" d="M1918.2 1293.96 L1918.2 1289.7 Q1919.96 1290.53 1921.77 1290.97 Q1923.57 1291.41 1925.31 1291.41 Q1929.94 1291.41 1932.37 1288.31 Q1934.82 1285.18 1935.17 1278.84 Q1933.83 1280.83 1931.77 1281.9 Q1929.71 1282.96 1927.21 1282.96 Q1922.02 1282.96 1918.99 1279.84 Q1915.98 1276.69 1915.98 1271.25 Q1915.98 1265.92 1919.13 1262.71 Q1922.28 1259.49 1927.51 1259.49 Q1933.5 1259.49 1936.65 1264.1 Q1939.82 1268.68 1939.82 1277.43 Q1939.82 1285.6 1935.93 1290.48 Q1932.07 1295.35 1925.52 1295.35 Q1923.76 1295.35 1921.95 1295 Q1920.15 1294.65 1918.2 1293.96 M1927.51 1279.3 Q1930.65 1279.3 1932.48 1277.15 Q1934.34 1275 1934.34 1271.25 Q1934.34 1267.52 1932.48 1265.37 Q1930.65 1263.19 1927.51 1263.19 Q1924.36 1263.19 1922.51 1265.37 Q1920.68 1267.52 1920.68 1271.25 Q1920.68 1275 1922.51 1277.15 Q1924.36 1279.3 1927.51 1279.3 Z" fill="#000000" fill-rule="nonzero" fill-opacity="1" /><path clip-path="url(#clip500)" d="M1958.22 1278.26 Q1954.89 1278.26 1952.97 1280.05 Q1951.07 1281.83 1951.07 1284.95 Q1951.07 1288.08 1952.97 1289.86 Q1954.89 1291.64 1958.22 1291.64 Q1961.56 1291.64 1963.48 1289.86 Q1965.4 1288.05 1965.4 1284.95 Q1965.4 1281.83 1963.48 1280.05 Q1961.58 1278.26 1958.22 1278.26 M1953.55 1276.27 Q1950.54 1275.53 1948.85 1273.47 Q1947.18 1271.41 1947.18 1268.45 Q1947.18 1264.3 1950.12 1261.9 Q1953.09 1259.49 1958.22 1259.49 Q1963.39 1259.49 1966.33 1261.9 Q1969.27 1264.3 1969.27 1268.45 Q1969.27 1271.41 1967.58 1273.47 Q1965.91 1275.53 1962.92 1276.27 Q1966.3 1277.06 1968.18 1279.35 Q1970.08 1281.64 1970.08 1284.95 Q1970.08 1289.98 1967 1292.66 Q1963.94 1295.35 1958.22 1295.35 Q1952.51 1295.35 1949.43 1292.66 Q1946.37 1289.98 1946.37 1284.95 Q1946.37 1281.64 1948.27 1279.35 Q1950.17 1277.06 1953.55 1276.27 M1951.84 1268.89 Q1951.84 1271.57 1953.5 1273.08 Q1955.19 1274.58 1958.22 1274.58 Q1961.23 1274.58 1962.92 1273.08 Q1964.64 1271.57 1964.64 1268.89 Q1964.64 1266.2 1962.92 1264.7 Q1961.23 1263.19 1958.22 1263.19 Q1955.19 1263.19 1953.5 1264.7 Q1951.84 1266.2 1951.84 1268.89 Z" fill="#000000" fill-rule="nonzero" fill-opacity="1" /><path clip-path="url(#clip500)" d="M1982.41 1290.74 L1998.73 1290.74 L1998.73 1294.67 L1976.79 1294.67 L1976.79 1290.74 Q1979.45 1287.99 1984.03 1283.36 Q1988.64 1278.7 1989.82 1277.36 Q1992.07 1274.84 1992.95 1273.1 Q1993.85 1271.34 1993.85 1269.65 Q1993.85 1266.9 1991.9 1265.16 Q1989.98 1263.42 1986.88 1263.42 Q1984.68 1263.42 1982.23 1264.19 Q1979.8 1264.95 1977.02 1266.5 L1977.02 1261.78 Q1979.84 1260.65 1982.3 1260.07 Q1984.75 1259.49 1986.79 1259.49 Q1992.16 1259.49 1995.35 1262.17 Q1998.55 1264.86 1998.55 1269.35 Q1998.55 1271.48 1997.74 1273.4 Q1996.95 1275.3 1994.84 1277.89 Q1994.27 1278.56 1991.16 1281.78 Q1988.06 1284.98 1982.41 1290.74 Z" fill="#000000" fill-rule="nonzero" fill-opacity="1" /><path clip-path="url(#clip500)" d="M2005.79 1279.79 L2018.27 1279.79 L2018.27 1283.59 L2005.79 1283.59 L2005.79 1279.79 Z" fill="#000000" fill-rule="nonzero" fill-opacity="1" /><path clip-path="url(#clip500)" d="M2035.65 1263.19 Q2032.04 1263.19 2030.21 1266.76 Q2028.41 1270.3 2028.41 1277.43 Q2028.41 1284.54 2030.21 1288.1 Q2032.04 1291.64 2035.65 1291.64 Q2039.29 1291.64 2041.09 1288.1 Q2042.92 1284.54 2042.92 1277.43 Q2042.92 1270.3 2041.09 1266.76 Q2039.29 1263.19 2035.65 1263.19 M2035.65 1259.49 Q2041.46 1259.49 2044.52 1264.1 Q2047.6 1268.68 2047.6 1277.43 Q2047.6 1286.16 2044.52 1290.76 Q2041.46 1295.35 2035.65 1295.35 Q2029.84 1295.35 2026.77 1290.76 Q2023.71 1286.16 2023.71 1277.43 Q2023.71 1268.68 2026.77 1264.1 Q2029.84 1259.49 2035.65 1259.49 Z" fill="#000000" fill-rule="nonzero" fill-opacity="1" /><path clip-path="url(#clip500)" d="M2056.63 1290.74 L2064.27 1290.74 L2064.27 1264.37 L2055.96 1266.04 L2055.96 1261.78 L2064.22 1260.11 L2068.89 1260.11 L2068.89 1290.74 L2076.53 1290.74 L2076.53 1294.67 L2056.63 1294.67 L2056.63 1290.74 Z" fill="#000000" fill-rule="nonzero" fill-opacity="1" /><path clip-path="url(#clip500)" d="M2083.22 1279.79 L2095.7 1279.79 L2095.7 1283.59 L2083.22 1283.59 L2083.22 1279.79 Z" fill="#000000" fill-rule="nonzero" fill-opacity="1" /><path clip-path="url(#clip500)" d="M2113.08 1263.19 Q2109.47 1263.19 2107.64 1266.76 Q2105.84 1270.3 2105.84 1277.43 Q2105.84 1284.54 2107.64 1288.1 Q2109.47 1291.64 2113.08 1291.64 Q2116.72 1291.64 2118.52 1288.1 Q2120.35 1284.54 2120.35 1277.43 Q2120.35 1270.3 2118.52 1266.76 Q2116.72 1263.19 2113.08 1263.19 M2113.08 1259.49 Q2118.89 1259.49 2121.95 1264.1 Q2125.03 1268.68 2125.03 1277.43 Q2125.03 1286.16 2121.95 1290.76 Q2118.89 1295.35 2113.08 1295.35 Q2107.27 1295.35 2104.2 1290.76 Q2101.14 1286.16 2101.14 1277.43 Q2101.14 1268.68 2104.2 1264.1 Q2107.27 1259.49 2113.08 1259.49 Z" fill="#000000" fill-rule="nonzero" fill-opacity="1" /><path clip-path="url(#clip500)" d="M2134.06 1290.74 L2141.7 1290.74 L2141.7 1264.37 L2133.39 1266.04 L2133.39 1261.78 L2141.65 1260.11 L2146.33 1260.11 L2146.33 1290.74 L2153.96 1290.74 L2153.96 1294.67 L2134.06 1294.67 L2134.06 1290.74 Z" fill="#000000" fill-rule="nonzero" fill-opacity="1" /><polyline clip-path="url(#clip500)" style="stroke:#000000; stroke-linecap:round; stroke-linejoin:round; stroke-width:4; stroke-opacity:1; fill:none" points="362.927,1234.58 362.927,47.2441 "/>
<polyline clip-path="url(#clip500)" style="stroke:#000000; stroke-linecap:round; stroke-linejoin:round; stroke-width:4; stroke-opacity:1; fill:none" points="362.927,1200.97 381.825,1200.97 "/>
<polyline clip-path="url(#clip500)" style="stroke:#000000; stroke-linecap:round; stroke-linejoin:round; stroke-width:4; stroke-opacity:1; fill:none" points="362.927,850.935 381.825,850.935 "/>
<polyline clip-path="url(#clip500)" style="stroke:#000000; stroke-linecap:round; stroke-linejoin:round; stroke-width:4; stroke-opacity:1; fill:none" points="362.927,500.896 381.825,500.896 "/>
<polyline clip-path="url(#clip500)" style="stroke:#000000; stroke-linecap:round; stroke-linejoin:round; stroke-width:4; stroke-opacity:1; fill:none" points="362.927,150.856 381.825,150.856 "/>
<path clip-path="url(#clip500)" d="M319.303 1186.77 Q315.692 1186.77 313.863 1190.34 Q312.058 1193.88 312.058 1201.01 Q312.058 1208.12 313.863 1211.68 Q315.692 1215.22 319.303 1215.22 Q322.937 1215.22 324.743 1211.68 Q326.571 1208.12 326.571 1201.01 Q326.571 1193.88 324.743 1190.34 Q322.937 1186.77 319.303 1186.77 M319.303 1183.07 Q325.113 1183.07 328.169 1187.68 Q331.247 1192.26 331.247 1201.01 Q331.247 1209.74 328.169 1214.34 Q325.113 1218.93 319.303 1218.93 Q313.493 1218.93 310.414 1214.34 Q307.359 1209.74 307.359 1201.01 Q307.359 1192.26 310.414 1187.68 Q313.493 1183.07 319.303 1183.07 Z" fill="#000000" fill-rule="nonzero" fill-opacity="1" /><path clip-path="url(#clip500)" d="M115.422 840.103 L133.779 840.103 L133.779 844.038 L119.705 844.038 L119.705 852.51 Q120.723 852.163 121.742 852.001 Q122.76 851.816 123.779 851.816 Q129.566 851.816 132.945 854.987 Q136.325 858.158 136.325 863.575 Q136.325 869.154 132.853 872.255 Q129.381 875.334 123.061 875.334 Q120.885 875.334 118.617 874.964 Q116.371 874.593 113.964 873.853 L113.964 869.154 Q116.047 870.288 118.27 870.843 Q120.492 871.399 122.969 871.399 Q126.973 871.399 129.311 869.293 Q131.649 867.186 131.649 863.575 Q131.649 859.964 129.311 857.857 Q126.973 855.751 122.969 855.751 Q121.094 855.751 119.219 856.168 Q117.367 856.584 115.422 857.464 L115.422 840.103 Z" fill="#000000" fill-rule="nonzero" fill-opacity="1" /><path clip-path="url(#clip500)" d="M145.538 868.783 L150.422 868.783 L150.422 874.663 L145.538 874.663 L145.538 868.783 Z" fill="#000000" fill-rule="nonzero" fill-opacity="1" /><path clip-path="url(#clip500)" d="M170.607 843.182 Q166.996 843.182 165.167 846.746 Q163.362 850.288 163.362 857.418 Q163.362 864.524 165.167 868.089 Q166.996 871.63 170.607 871.63 Q174.242 871.63 176.047 868.089 Q177.876 864.524 177.876 857.418 Q177.876 850.288 176.047 846.746 Q174.242 843.182 170.607 843.182 M170.607 839.478 Q176.417 839.478 179.473 844.084 Q182.552 848.668 182.552 857.418 Q182.552 866.144 179.473 870.751 Q176.417 875.334 170.607 875.334 Q164.797 875.334 161.718 870.751 Q158.663 866.144 158.663 857.418 Q158.663 848.668 161.718 844.084 Q164.797 839.478 170.607 839.478 Z" fill="#000000" fill-rule="nonzero" fill-opacity="1" /><path clip-path="url(#clip500)" d="M200.769 843.182 Q197.158 843.182 195.329 846.746 Q193.524 850.288 193.524 857.418 Q193.524 864.524 195.329 868.089 Q197.158 871.63 200.769 871.63 Q204.403 871.63 206.209 868.089 Q208.038 864.524 208.038 857.418 Q208.038 850.288 206.209 846.746 Q204.403 843.182 200.769 843.182 M200.769 839.478 Q206.579 839.478 209.635 844.084 Q212.714 848.668 212.714 857.418 Q212.714 866.144 209.635 870.751 Q206.579 875.334 200.769 875.334 Q194.959 875.334 191.88 870.751 Q188.825 866.144 188.825 857.418 Q188.825 848.668 191.88 844.084 Q194.959 839.478 200.769 839.478 Z" fill="#000000" fill-rule="nonzero" fill-opacity="1" /><path clip-path="url(#clip500)" d="M249.102 849.2 L238.524 859.825 L249.102 870.404 L246.348 873.205 L235.723 862.58 L225.098 873.205 L222.366 870.404 L232.922 859.825 L222.366 849.2 L225.098 846.399 L235.723 857.024 L246.348 846.399 L249.102 849.2 Z" fill="#000000" fill-rule="nonzero" fill-opacity="1" /><path clip-path="url(#clip500)" d="M261.463 870.728 L269.102 870.728 L269.102 844.362 L260.792 846.029 L260.792 841.77 L269.056 840.103 L273.732 840.103 L273.732 870.728 L281.371 870.728 L281.371 874.663 L261.463 874.663 L261.463 870.728 Z" fill="#000000" fill-rule="nonzero" fill-opacity="1" /><path clip-path="url(#clip500)" d="M300.815 843.182 Q297.204 843.182 295.375 846.746 Q293.57 850.288 293.57 857.418 Q293.57 864.524 295.375 868.089 Q297.204 871.63 300.815 871.63 Q304.449 871.63 306.255 868.089 Q308.083 864.524 308.083 857.418 Q308.083 850.288 306.255 846.746 Q304.449 843.182 300.815 843.182 M300.815 839.478 Q306.625 839.478 309.681 844.084 Q312.759 848.668 312.759 857.418 Q312.759 866.144 309.681 870.751 Q306.625 875.334 300.815 875.334 Q295.005 875.334 291.926 870.751 Q288.871 866.144 288.871 857.418 Q288.871 848.668 291.926 844.084 Q295.005 839.478 300.815 839.478 Z" fill="#000000" fill-rule="nonzero" fill-opacity="1" /><path clip-path="url(#clip500)" d="M325.455 832.112 Q328.182 832.695 329.705 834.538 Q331.247 836.382 331.247 839.09 Q331.247 843.246 328.389 845.522 Q325.53 847.798 320.264 847.798 Q318.496 847.798 316.615 847.441 Q314.753 847.102 312.759 846.406 L312.759 842.739 Q314.339 843.66 316.22 844.13 Q318.101 844.601 320.151 844.601 Q323.724 844.601 325.586 843.19 Q327.467 841.779 327.467 839.09 Q327.467 836.607 325.718 835.215 Q323.988 833.805 320.884 833.805 L317.612 833.805 L317.612 830.683 L321.035 830.683 Q323.837 830.683 325.323 829.573 Q326.809 828.445 326.809 826.338 Q326.809 824.175 325.266 823.028 Q323.743 821.862 320.884 821.862 Q319.323 821.862 317.536 822.201 Q315.75 822.539 313.606 823.254 L313.606 819.868 Q315.769 819.267 317.649 818.966 Q319.549 818.665 321.223 818.665 Q325.549 818.665 328.069 820.639 Q330.589 822.595 330.589 825.943 Q330.589 828.275 329.254 829.893 Q327.918 831.492 325.455 832.112 Z" fill="#000000" fill-rule="nonzero" fill-opacity="1" /><path clip-path="url(#clip500)" d="M114.211 520.688 L121.85 520.688 L121.85 494.322 L113.54 495.989 L113.54 491.73 L121.804 490.063 L126.48 490.063 L126.48 520.688 L134.119 520.688 L134.119 524.623 L114.211 524.623 L114.211 520.688 Z" fill="#000000" fill-rule="nonzero" fill-opacity="1" /><path clip-path="url(#clip500)" d="M143.563 518.744 L148.447 518.744 L148.447 524.623 L143.563 524.623 L143.563 518.744 Z" fill="#000000" fill-rule="nonzero" fill-opacity="1" /><path clip-path="url(#clip500)" d="M168.632 493.142 Q165.021 493.142 163.193 496.707 Q161.387 500.248 161.387 507.378 Q161.387 514.484 163.193 518.049 Q165.021 521.591 168.632 521.591 Q172.267 521.591 174.072 518.049 Q175.901 514.484 175.901 507.378 Q175.901 500.248 174.072 496.707 Q172.267 493.142 168.632 493.142 M168.632 489.438 Q174.443 489.438 177.498 494.045 Q180.577 498.628 180.577 507.378 Q180.577 516.105 177.498 520.711 Q174.443 525.294 168.632 525.294 Q162.822 525.294 159.744 520.711 Q156.688 516.105 156.688 507.378 Q156.688 498.628 159.744 494.045 Q162.822 489.438 168.632 489.438 Z" fill="#000000" fill-rule="nonzero" fill-opacity="1" /><path clip-path="url(#clip500)" d="M198.794 493.142 Q195.183 493.142 193.355 496.707 Q191.549 500.248 191.549 507.378 Q191.549 514.484 193.355 518.049 Q195.183 521.591 198.794 521.591 Q202.429 521.591 204.234 518.049 Q206.063 514.484 206.063 507.378 Q206.063 500.248 204.234 496.707 Q202.429 493.142 198.794 493.142 M198.794 489.438 Q204.604 489.438 207.66 494.045 Q210.739 498.628 210.739 507.378 Q210.739 516.105 207.66 520.711 Q204.604 525.294 198.794 525.294 Q192.984 525.294 189.905 520.711 Q186.85 516.105 186.85 507.378 Q186.85 498.628 189.905 494.045 Q192.984 489.438 198.794 489.438 Z" fill="#000000" fill-rule="nonzero" fill-opacity="1" /><path clip-path="url(#clip500)" d="M247.127 499.16 L236.549 509.785 L247.127 520.364 L244.373 523.165 L233.748 512.54 L223.123 523.165 L220.391 520.364 L230.947 509.785 L220.391 499.16 L223.123 496.359 L233.748 506.984 L244.373 496.359 L247.127 499.16 Z" fill="#000000" fill-rule="nonzero" fill-opacity="1" /><path clip-path="url(#clip500)" d="M259.488 520.688 L267.127 520.688 L267.127 494.322 L258.817 495.989 L258.817 491.73 L267.081 490.063 L271.757 490.063 L271.757 520.688 L279.396 520.688 L279.396 524.623 L259.488 524.623 L259.488 520.688 Z" fill="#000000" fill-rule="nonzero" fill-opacity="1" /><path clip-path="url(#clip500)" d="M298.84 493.142 Q295.229 493.142 293.4 496.707 Q291.595 500.248 291.595 507.378 Q291.595 514.484 293.4 518.049 Q295.229 521.591 298.84 521.591 Q302.474 521.591 304.28 518.049 Q306.109 514.484 306.109 507.378 Q306.109 500.248 304.28 496.707 Q302.474 493.142 298.84 493.142 M298.84 489.438 Q304.65 489.438 307.706 494.045 Q310.784 498.628 310.784 507.378 Q310.784 516.105 307.706 520.711 Q304.65 525.294 298.84 525.294 Q293.03 525.294 289.951 520.711 Q286.896 516.105 286.896 507.378 Q286.896 498.628 289.951 494.045 Q293.03 489.438 298.84 489.438 Z" fill="#000000" fill-rule="nonzero" fill-opacity="1" /><path clip-path="url(#clip500)" d="M323.461 472.443 L313.869 487.433 L323.461 487.433 L323.461 472.443 M322.464 469.133 L327.241 469.133 L327.241 487.433 L331.247 487.433 L331.247 490.592 L327.241 490.592 L327.241 497.213 L323.461 497.213 L323.461 490.592 L310.784 490.592 L310.784 486.925 L322.464 469.133 Z" fill="#000000" fill-rule="nonzero" fill-opacity="1" /><path clip-path="url(#clip500)" d="M114.211 170.648 L121.85 170.648 L121.85 144.283 L113.54 145.949 L113.54 141.69 L121.804 140.023 L126.48 140.023 L126.48 170.648 L134.119 170.648 L134.119 174.583 L114.211 174.583 L114.211 170.648 Z" fill="#000000" fill-rule="nonzero" fill-opacity="1" /><path clip-path="url(#clip500)" d="M143.563 168.704 L148.447 168.704 L148.447 174.583 L143.563 174.583 L143.563 168.704 Z" fill="#000000" fill-rule="nonzero" fill-opacity="1" /><path clip-path="url(#clip500)" d="M158.679 140.023 L177.035 140.023 L177.035 143.959 L162.961 143.959 L162.961 152.431 Q163.98 152.084 164.998 151.922 Q166.017 151.736 167.035 151.736 Q172.822 151.736 176.202 154.908 Q179.581 158.079 179.581 163.496 Q179.581 169.074 176.109 172.176 Q172.637 175.255 166.318 175.255 Q164.142 175.255 161.873 174.884 Q159.628 174.514 157.22 173.773 L157.22 169.074 Q159.304 170.208 161.526 170.764 Q163.748 171.32 166.225 171.32 Q170.23 171.32 172.568 169.213 Q174.906 167.107 174.906 163.496 Q174.906 159.884 172.568 157.778 Q170.23 155.672 166.225 155.672 Q164.35 155.672 162.475 156.088 Q160.623 156.505 158.679 157.384 L158.679 140.023 Z" fill="#000000" fill-rule="nonzero" fill-opacity="1" /><path clip-path="url(#clip500)" d="M198.794 143.102 Q195.183 143.102 193.355 146.667 Q191.549 150.209 191.549 157.338 Q191.549 164.445 193.355 168.009 Q195.183 171.551 198.794 171.551 Q202.429 171.551 204.234 168.009 Q206.063 164.445 206.063 157.338 Q206.063 150.209 204.234 146.667 Q202.429 143.102 198.794 143.102 M198.794 139.398 Q204.604 139.398 207.66 144.005 Q210.739 148.588 210.739 157.338 Q210.739 166.065 207.66 170.671 Q204.604 175.255 198.794 175.255 Q192.984 175.255 189.905 170.671 Q186.85 166.065 186.85 157.338 Q186.85 148.588 189.905 144.005 Q192.984 139.398 198.794 139.398 Z" fill="#000000" fill-rule="nonzero" fill-opacity="1" /><path clip-path="url(#clip500)" d="M247.127 149.121 L236.549 159.746 L247.127 170.324 L244.373 173.125 L233.748 162.5 L223.123 173.125 L220.391 170.324 L230.947 159.746 L220.391 149.121 L223.123 146.32 L233.748 156.945 L244.373 146.32 L247.127 149.121 Z" fill="#000000" fill-rule="nonzero" fill-opacity="1" /><path clip-path="url(#clip500)" d="M259.488 170.648 L267.127 170.648 L267.127 144.283 L258.817 145.949 L258.817 141.69 L267.081 140.023 L271.757 140.023 L271.757 170.648 L279.396 170.648 L279.396 174.583 L259.488 174.583 L259.488 170.648 Z" fill="#000000" fill-rule="nonzero" fill-opacity="1" /><path clip-path="url(#clip500)" d="M298.84 143.102 Q295.229 143.102 293.4 146.667 Q291.595 150.209 291.595 157.338 Q291.595 164.445 293.4 168.009 Q295.229 171.551 298.84 171.551 Q302.474 171.551 304.28 168.009 Q306.109 164.445 306.109 157.338 Q306.109 150.209 304.28 146.667 Q302.474 143.102 298.84 143.102 M298.84 139.398 Q304.65 139.398 307.706 144.005 Q310.784 148.588 310.784 157.338 Q310.784 166.065 307.706 170.671 Q304.65 175.255 298.84 175.255 Q293.03 175.255 289.951 170.671 Q286.896 166.065 286.896 157.338 Q286.896 148.588 289.951 144.005 Q293.03 139.398 298.84 139.398 Z" fill="#000000" fill-rule="nonzero" fill-opacity="1" /><path clip-path="url(#clip500)" d="M323.461 122.403 L313.869 137.393 L323.461 137.393 L323.461 122.403 M322.464 119.093 L327.241 119.093 L327.241 137.393 L331.247 137.393 L331.247 140.553 L327.241 140.553 L327.241 147.173 L323.461 147.173 L323.461 140.553 L310.784 140.553 L310.784 136.885 L322.464 119.093 Z" fill="#000000" fill-rule="nonzero" fill-opacity="1" /><path clip-path="url(#clip500)" d="M20.0842 897.752 L20.0842 857.552 L25.495 857.552 L25.495 874.421 L67.6042 874.421 L67.6042 880.883 L25.495 880.883 L25.495 897.752 L20.0842 897.752 Z" fill="#000000" fill-rule="nonzero" fill-opacity="1" /><path clip-path="url(#clip500)" d="M49.6847 846.19 Q49.6847 853.287 51.3079 856.025 Q52.9312 858.762 56.8461 858.762 Q59.9653 858.762 61.8114 856.725 Q63.6256 854.656 63.6256 851.123 Q63.6256 846.253 60.1881 843.325 Q56.7188 840.365 50.9897 840.365 L49.6847 840.365 L49.6847 846.19 M47.2657 834.508 L67.6042 834.508 L67.6042 840.365 L62.1933 840.365 Q65.4398 842.37 66.9994 845.362 Q68.5272 848.354 68.5272 852.683 Q68.5272 858.157 65.4716 861.404 Q62.3843 864.618 57.2281 864.618 Q51.2125 864.618 48.1569 860.608 Q45.1014 856.566 45.1014 848.577 L45.1014 840.365 L44.5285 840.365 Q40.4862 840.365 38.2901 843.039 Q36.0621 845.68 36.0621 850.486 Q36.0621 853.542 36.7941 856.438 Q37.5262 859.335 38.9903 862.008 L33.5795 862.008 Q32.3381 858.794 31.7334 855.77 Q31.0968 852.746 31.0968 849.882 Q31.0968 842.147 35.1072 838.328 Q39.1176 834.508 47.2657 834.508 Z" fill="#000000" fill-rule="nonzero" fill-opacity="1" /><path clip-path="url(#clip500)" d="M46.0881 792.813 L67.6042 792.813 L67.6042 798.67 L46.279 798.67 Q41.2183 798.67 38.7038 800.643 Q36.1894 802.616 36.1894 806.563 Q36.1894 811.305 39.2131 814.043 Q42.2368 816.78 47.4567 816.78 L67.6042 816.78 L67.6042 822.668 L31.9562 822.668 L31.9562 816.78 L37.4944 816.78 Q34.2797 814.679 32.6883 811.847 Q31.0968 808.982 31.0968 805.258 Q31.0968 799.115 34.9163 795.964 Q38.7038 792.813 46.0881 792.813 Z" fill="#000000" fill-rule="nonzero" fill-opacity="1" /><path clip-path="url(#clip500)" d="M18.079 781.355 L18.079 775.467 L47.3294 775.467 L31.9562 757.993 L31.9562 750.513 L48.6344 769.419 L67.6042 749.717 L67.6042 757.356 L50.1939 775.467 L67.6042 775.467 L67.6042 781.355 L18.079 781.355 Z" fill="#000000" fill-rule="nonzero" fill-opacity="1" /><path clip-path="url(#clip500)" d="M67.6042 710.154 L20.0842 728.297 L20.0842 721.581 L60.0926 706.526 L20.0842 691.439 L20.0842 684.755 L67.6042 702.866 L67.6042 710.154 Z" fill="#000000" fill-rule="nonzero" fill-opacity="1" /><path clip-path="url(#clip500)" d="M36.0621 669.318 Q36.0621 674.029 39.7542 676.766 Q43.4145 679.504 49.812 679.504 Q56.2095 679.504 59.9017 676.798 Q63.5619 674.061 63.5619 669.318 Q63.5619 664.64 59.8698 661.902 Q56.1777 659.165 49.812 659.165 Q43.4781 659.165 39.786 661.902 Q36.0621 664.64 36.0621 669.318 M31.0968 669.318 Q31.0968 661.68 36.0621 657.319 Q41.0273 652.959 49.812 652.959 Q58.5649 652.959 63.5619 657.319 Q68.5272 661.68 68.5272 669.318 Q68.5272 676.989 63.5619 681.35 Q58.5649 685.678 49.812 685.678 Q41.0273 685.678 36.0621 681.35 Q31.0968 676.989 31.0968 669.318 Z" fill="#000000" fill-rule="nonzero" fill-opacity="1" /><path clip-path="url(#clip500)" d="M18.079 643.251 L18.079 637.394 L67.6042 637.394 L67.6042 643.251 L18.079 643.251 Z" fill="#000000" fill-rule="nonzero" fill-opacity="1" /><path clip-path="url(#clip500)" d="M53.5359 625.745 L31.9562 625.745 L31.9562 619.889 L53.3131 619.889 Q58.3739 619.889 60.9202 617.915 Q63.4346 615.942 63.4346 611.995 Q63.4346 607.253 60.4109 604.516 Q57.3872 601.746 52.1673 601.746 L31.9562 601.746 L31.9562 595.89 L67.6042 595.89 L67.6042 601.746 L62.1296 601.746 Q65.3762 603.879 66.9676 606.712 Q68.5272 609.513 68.5272 613.237 Q68.5272 619.379 64.7078 622.562 Q60.8883 625.745 53.5359 625.745 M31.0968 611.009 L31.0968 611.009 Z" fill="#000000" fill-rule="nonzero" fill-opacity="1" /><path clip-path="url(#clip500)" d="M38.7993 556.072 Q34.8526 553.876 32.9747 550.821 Q31.0968 547.765 31.0968 543.628 Q31.0968 538.058 35.0117 535.034 Q38.8948 532.01 46.0881 532.01 L67.6042 532.01 L67.6042 537.898 L46.279 537.898 Q41.1546 537.898 38.672 539.713 Q36.1894 541.527 36.1894 545.251 Q36.1894 549.802 39.2131 552.444 Q42.2368 555.086 47.4567 555.086 L67.6042 555.086 L67.6042 560.974 L46.279 560.974 Q41.1228 560.974 38.672 562.788 Q36.1894 564.603 36.1894 568.39 Q36.1894 572.878 39.2449 575.52 Q42.2686 578.161 47.4567 578.161 L67.6042 578.161 L67.6042 584.05 L31.9562 584.05 L31.9562 578.161 L37.4944 578.161 Q34.216 576.156 32.6564 573.355 Q31.0968 570.554 31.0968 566.703 Q31.0968 562.82 33.0702 560.115 Q35.0436 557.377 38.7993 556.072 Z" fill="#000000" fill-rule="nonzero" fill-opacity="1" /><path clip-path="url(#clip500)" d="M48.3161 489.837 L51.1806 489.837 L51.1806 516.764 Q57.2281 516.382 60.4109 513.136 Q63.5619 509.857 63.5619 504.033 Q63.5619 500.659 62.7344 497.508 Q61.9069 494.325 60.2518 491.206 L65.7899 491.206 Q67.1267 494.357 67.827 497.667 Q68.5272 500.977 68.5272 504.383 Q68.5272 512.913 63.5619 517.91 Q58.5967 522.875 50.1303 522.875 Q41.3774 522.875 36.2531 518.165 Q31.0968 513.422 31.0968 505.401 Q31.0968 498.208 35.7438 494.039 Q40.3589 489.837 48.3161 489.837 M46.5973 495.694 Q41.7912 495.757 38.9266 498.399 Q36.0621 501.009 36.0621 505.338 Q36.0621 510.239 38.8312 513.199 Q41.6002 516.128 46.6292 516.573 L46.5973 495.694 Z" fill="#000000" fill-rule="nonzero" fill-opacity="1" /><path clip-path="url(#clip500)" d="M18.079 460.046 L18.079 446.551 L22.6304 446.551 L22.6304 454.189 L71.6464 454.189 L71.6464 446.551 L76.1979 446.551 L76.1979 460.046 L18.079 460.046 Z" fill="#000000" fill-rule="nonzero" fill-opacity="1" /><path clip-path="url(#clip500)" d="M20.0842 433.819 L20.0842 427.39 L62.1933 427.39 L62.1933 404.25 L67.6042 404.25 L67.6042 433.819 L20.0842 433.819 Z" fill="#000000" fill-rule="nonzero" fill-opacity="1" /><path clip-path="url(#clip500)" d="M18.079 384.071 L76.1979 384.071 L76.1979 397.566 L71.6464 397.566 L71.6464 389.959 L22.6304 389.959 L22.6304 397.566 L18.079 397.566 L18.079 384.071 Z" fill="#000000" fill-rule="nonzero" fill-opacity="1" /><polyline clip-path="url(#clip502)" style="stroke:#009af9; stroke-linecap:round; stroke-linejoin:round; stroke-width:8; stroke-opacity:1; fill:none" points="411.092,1200.97 415.503,1200.97 419.914,1200.97 424.324,1200.97 428.735,1200.97 433.146,1200.97 437.557,1200.97 441.967,1200.97 446.378,1200.97 450.789,1200.97 455.199,1200.97 459.61,1200.97 464.021,1200.97 468.432,1200.97 472.842,1200.97 477.253,1200.97 481.664,1200.97 486.074,1200.97 490.485,1156.37 494.896,1156.37 499.306,1156.37 503.717,1156.37 508.128,1156.37 512.539,1156.37 516.949,1156.37 521.36,1156.37 525.771,1086.81 530.181,1086.81 534.592,1086.81 539.003,1086.81 543.414,1074.71 547.824,1074.71 552.235,1074.71 556.646,1074.71 561.056,1074.71 565.467,1074.71 569.878,1074.71 574.289,1074.71 578.699,1013.72 583.11,1013.72 587.521,1013.72 591.931,1013.72 596.342,1013.72 600.753,1013.72 605.164,1013.72 609.574,1013.72 613.985,1013.72 618.396,1013.72 622.806,1013.72 627.217,1013.72 631.628,1013.72 636.039,1013.72 640.449,1013.72 644.86,1013.72 649.271,1013.72 653.681,1013.72 658.092,1013.72 662.503,1013.72 666.913,1013.72 671.324,1013.72 675.735,1013.72 680.146,1013.72 684.556,1013.72 688.967,1013.72 693.378,1013.72 697.788,1013.72 702.199,1013.72 706.61,1013.72 711.021,1013.72 715.431,1013.72 719.842,1013.72 724.253,975.409 728.663,950.711 733.074,889.216 737.485,871.574 741.896,723.633 746.306,723.633 750.717,723.633 755.128,671.211 759.538,671.211 763.949,667.682 768.36,532.091 772.771,278.55 777.181,238.478 781.592,211.511 786.003,211.511 790.413,190.34 794.824,190.34 799.235,190.34 803.646,143.463 808.056,80.8479 812.467,80.8479 816.878,80.8479 821.288,80.8479 825.699,80.8479 830.11,80.8479 834.521,80.8479 838.931,80.8479 843.342,80.8479 847.753,80.8479 852.163,80.8479 856.574,80.8479 860.985,80.8479 865.395,80.8479 869.806,80.8479 874.217,80.8479 878.628,80.8479 883.038,80.8479 887.449,80.8479 891.86,80.8479 896.27,80.8479 900.681,80.8479 905.092,80.8479 909.503,80.8479 913.913,80.8479 918.324,80.8479 922.735,80.8479 927.145,80.8479 931.556,80.8479 935.967,80.8479 940.378,80.8479 944.788,80.8479 949.199,80.8479 953.61,80.8479 958.02,80.8479 962.431,80.8479 966.842,80.8479 971.253,80.8479 975.663,80.8479 980.074,80.8479 984.485,80.8479 988.895,80.8479 993.306,80.8479 997.717,80.8479 1002.13,80.8479 1006.54,80.8479 1010.95,80.8479 1015.36,80.8479 1019.77,80.8479 1024.18,80.8479 1028.59,80.8479 1033,80.8479 1037.41,80.8479 1041.82,80.8479 1046.23,80.8479 1050.65,80.8479 1055.06,80.8479 1059.47,80.8479 1063.88,80.8479 1068.29,80.8479 1072.7,86.0355 1077.11,91.2231 1081.52,96.4107 1085.93,101.598 1090.34,106.786 1094.75,111.973 1099.16,117.161 1103.57,122.349 1107.98,127.536 1112.4,132.724 1116.81,137.911 1121.22,143.099 1125.63,148.287 1130.04,153.474 1134.45,158.662 1138.86,163.849 1143.27,169.037 1147.68,174.224 1152.09,179.412 1156.5,184.6 1160.91,189.787 1165.32,194.975 1169.73,200.162 1174.15,205.35 1178.56,210.538 1182.97,215.725 1187.38,220.913 1191.79,226.1 1196.2,231.288 1200.61,236.476 1205.02,241.663 1209.43,246.851 1213.84,252.038 1218.25,257.226 1222.66,262.414 1227.07,267.601 1231.48,272.789 1235.9,277.976 1240.31,283.164 1244.72,288.351 1249.13,293.539 1253.54,298.727 1257.95,303.914 1262.36,309.102 1266.77,314.289 1271.18,319.477 1275.59,324.665 1280,329.852 1284.41,335.04 1288.82,340.227 1293.23,345.415 1297.65,350.603 1302.06,355.79 1306.47,360.978 1310.88,366.165 1315.29,371.353 1319.7,376.54 1324.11,381.728 1328.52,386.916 1332.93,392.103 1337.34,397.291 1341.75,402.478 1346.16,407.666 1350.57,412.854 1354.98,418.041 1359.4,423.229 1363.81,428.416 1368.22,433.604 1372.63,438.792 1377.04,443.979 1381.45,449.167 1385.86,454.354 1390.27,459.542 1394.68,464.729 1399.09,469.917 1403.5,475.105 1407.91,480.292 1412.32,485.48 1416.73,490.667 1421.15,495.855 1425.56,501.043 1429.97,506.23 1434.38,511.418 1438.79,516.605 1443.2,521.793 1447.61,526.981 1452.02,532.168 1456.43,537.356 1460.84,542.543 1465.25,547.731 1469.66,552.918 1474.07,558.106 1478.48,563.294 1482.89,568.481 1487.31,573.669 1491.72,578.856 1496.13,584.044 1500.54,589.232 1504.95,594.419 1509.36,599.607 1513.77,604.794 1518.18,609.982 1522.59,615.17 1527,620.357 1531.41,625.545 1535.82,630.732 1540.23,635.92 1544.64,641.107 1549.06,646.295 1553.47,651.483 1557.88,656.67 1562.29,661.858 1566.7,667.045 1571.11,672.233 1575.52,677.421 1579.93,682.608 1584.34,687.796 1588.75,692.983 1593.16,698.171 1597.57,703.359 1601.98,708.546 1606.39,713.734 1610.81,718.921 1615.22,704.955 1619.63,710.142 1624.04,715.33 1628.45,720.517 1632.86,725.705 1637.27,730.893 1641.68,736.08 1646.09,736.983 1650.5,742.171 1654.91,747.359 1659.32,752.546 1663.73,757.734 1668.14,762.921 1672.56,768.109 1676.97,773.296 1681.38,778.484 1685.79,783.672 1690.2,788.859 1694.61,794.047 1699.02,799.234 1703.43,804.422 1707.84,809.61 1712.25,814.797 1716.66,819.985 1721.07,825.172 1725.48,830.36 1729.89,835.548 1734.31,840.735 1738.72,845.923 1743.13,851.11 1747.54,856.298 1751.95,861.485 1756.36,866.673 1760.77,871.861 1765.18,877.048 1769.59,882.236 1774,887.423 1778.41,892.611 1782.82,897.799 1787.23,902.986 1791.64,908.174 1796.06,913.361 1800.47,918.549 1804.88,923.737 1809.29,928.924 1813.7,934.112 1818.11,939.299 1822.52,944.487 1826.93,949.674 1831.34,954.862 1835.75,960.05 1840.16,965.237 1844.57,970.425 1848.98,975.612 1853.39,980.8 1857.81,985.988 1862.22,991.175 1866.63,996.363 1871.04,1001.55 1875.45,1006.74 1879.86,1011.93 1884.27,1013.58 1888.68,1018.77 1893.09,1023.96 1897.5,1029.15 1901.91,1034.34 1906.32,1039.52 1910.73,1044.71 1915.14,1049.9 1919.56,1055.09 1923.97,1060.27 1928.38,1065.46 1932.79,1070.65 1937.2,1075.84 1941.61,1081.02 1946.02,1086.21 1950.43,1091.4 1954.84,1096.59 1959.25,1101.77 1963.66,1106.96 1968.07,1112.15 1972.48,1084.07 1976.89,1089.26 1981.31,1066.22 1985.72,1030.58 1990.13,1035.76 1994.54,1040.95 1998.95,1042.61 2003.36,1047.8 2007.77,1052.99 2012.18,1058.17 2016.59,1063.36 "/>
<path clip-path="url(#clip500)" d="M1541.18 190.502 L2008.03 190.502 L2008.03 86.8219 L1541.18 86.8219  Z" fill="#ffffff" fill-rule="evenodd" fill-opacity="1"/>
<polyline clip-path="url(#clip500)" style="stroke:#000000; stroke-linecap:round; stroke-linejoin:round; stroke-width:4; stroke-opacity:1; fill:none" points="1541.18,190.502 2008.03,190.502 2008.03,86.8219 1541.18,86.8219 1541.18,190.502 "/>
<polyline clip-path="url(#clip500)" style="stroke:#009af9; stroke-linecap:round; stroke-linejoin:round; stroke-width:8; stroke-opacity:1; fill:none" points="1560.09,138.662 1673.54,138.662 "/>
<path clip-path="url(#clip500)" d="M1692.45 121.382 L1721.69 121.382 L1721.69 125.317 L1709.42 125.317 L1709.42 155.942 L1704.72 155.942 L1704.72 125.317 L1692.45 125.317 L1692.45 121.382 Z" fill="#000000" fill-rule="nonzero" fill-opacity="1" /><path clip-path="url(#clip500)" d="M1729.95 142.91 Q1724.79 142.91 1722.8 144.09 Q1720.81 145.271 1720.81 148.118 Q1720.81 150.386 1722.29 151.729 Q1723.8 153.048 1726.37 153.048 Q1729.91 153.048 1732.04 150.548 Q1734.19 148.025 1734.19 143.859 L1734.19 142.91 L1729.95 142.91 M1738.45 141.15 L1738.45 155.942 L1734.19 155.942 L1734.19 152.007 Q1732.73 154.368 1730.56 155.502 Q1728.38 156.613 1725.23 156.613 Q1721.25 156.613 1718.89 154.391 Q1716.55 152.146 1716.55 148.396 Q1716.55 144.021 1719.47 141.798 Q1722.41 139.576 1728.22 139.576 L1734.19 139.576 L1734.19 139.16 Q1734.19 136.22 1732.25 134.623 Q1730.32 133.002 1726.83 133.002 Q1724.61 133.002 1722.5 133.535 Q1720.39 134.067 1718.45 135.132 L1718.45 131.197 Q1720.79 130.294 1722.99 129.854 Q1725.19 129.391 1727.27 129.391 Q1732.89 129.391 1735.67 132.308 Q1738.45 135.224 1738.45 141.15 Z" fill="#000000" fill-rule="nonzero" fill-opacity="1" /><path clip-path="url(#clip500)" d="M1768.77 140.294 L1768.77 155.942 L1764.51 155.942 L1764.51 140.433 Q1764.51 136.752 1763.08 134.924 Q1761.64 133.095 1758.77 133.095 Q1755.32 133.095 1753.33 135.294 Q1751.34 137.493 1751.34 141.289 L1751.34 155.942 L1747.06 155.942 L1747.06 130.016 L1751.34 130.016 L1751.34 134.044 Q1752.87 131.706 1754.93 130.549 Q1757.01 129.391 1759.72 129.391 Q1764.19 129.391 1766.48 132.169 Q1768.77 134.924 1768.77 140.294 Z" fill="#000000" fill-rule="nonzero" fill-opacity="1" /><path clip-path="url(#clip500)" d="M1777.11 119.924 L1781.39 119.924 L1781.39 141.197 L1794.1 130.016 L1799.54 130.016 L1785.79 142.146 L1800.12 155.942 L1794.56 155.942 L1781.39 143.28 L1781.39 155.942 L1777.11 155.942 L1777.11 119.924 Z" fill="#000000" fill-rule="nonzero" fill-opacity="1" /><path clip-path="url(#clip500)" d="M1828.89 155.942 L1815.69 121.382 L1820.58 121.382 L1831.53 150.479 L1842.5 121.382 L1847.36 121.382 L1834.19 155.942 L1828.89 155.942 Z" fill="#000000" fill-rule="nonzero" fill-opacity="1" /><path clip-path="url(#clip500)" d="M1858.59 133.002 Q1855.16 133.002 1853.17 135.687 Q1851.18 138.349 1851.18 143.002 Q1851.18 147.655 1853.15 150.34 Q1855.14 153.002 1858.59 153.002 Q1861.99 153.002 1863.98 150.317 Q1865.97 147.632 1865.97 143.002 Q1865.97 138.396 1863.98 135.711 Q1861.99 133.002 1858.59 133.002 M1858.59 129.391 Q1864.14 129.391 1867.31 133.002 Q1870.49 136.613 1870.49 143.002 Q1870.49 149.368 1867.31 153.002 Q1864.14 156.613 1858.59 156.613 Q1853.01 156.613 1849.84 153.002 Q1846.69 149.368 1846.69 143.002 Q1846.69 136.613 1849.84 133.002 Q1853.01 129.391 1858.59 129.391 Z" fill="#000000" fill-rule="nonzero" fill-opacity="1" /><path clip-path="url(#clip500)" d="M1877.55 119.924 L1881.8 119.924 L1881.8 155.942 L1877.55 155.942 L1877.55 119.924 Z" fill="#000000" fill-rule="nonzero" fill-opacity="1" /><path clip-path="url(#clip500)" d="M1890.28 145.71 L1890.28 130.016 L1894.54 130.016 L1894.54 145.548 Q1894.54 149.229 1895.97 151.081 Q1897.41 152.91 1900.28 152.91 Q1903.73 152.91 1905.72 150.71 Q1907.73 148.511 1907.73 144.715 L1907.73 130.016 L1911.99 130.016 L1911.99 155.942 L1907.73 155.942 L1907.73 151.96 Q1906.18 154.322 1904.12 155.479 Q1902.08 156.613 1899.37 156.613 Q1894.91 156.613 1892.59 153.835 Q1890.28 151.058 1890.28 145.71 M1900.99 129.391 L1900.99 129.391 Z" fill="#000000" fill-rule="nonzero" fill-opacity="1" /><path clip-path="url(#clip500)" d="M1940.95 134.993 Q1942.55 132.123 1944.77 130.757 Q1946.99 129.391 1950 129.391 Q1954.05 129.391 1956.25 132.238 Q1958.45 135.062 1958.45 140.294 L1958.45 155.942 L1954.17 155.942 L1954.17 140.433 Q1954.17 136.706 1952.85 134.9 Q1951.53 133.095 1948.82 133.095 Q1945.51 133.095 1943.59 135.294 Q1941.67 137.493 1941.67 141.289 L1941.67 155.942 L1937.38 155.942 L1937.38 140.433 Q1937.38 136.683 1936.06 134.9 Q1934.74 133.095 1931.99 133.095 Q1928.73 133.095 1926.8 135.317 Q1924.88 137.516 1924.88 141.289 L1924.88 155.942 L1920.6 155.942 L1920.6 130.016 L1924.88 130.016 L1924.88 134.044 Q1926.34 131.66 1928.38 130.525 Q1930.42 129.391 1933.22 129.391 Q1936.04 129.391 1938.01 130.826 Q1940 132.261 1940.95 134.993 Z" fill="#000000" fill-rule="nonzero" fill-opacity="1" /><path clip-path="url(#clip500)" d="M1989.12 141.914 L1989.12 143.998 L1969.54 143.998 Q1969.81 148.396 1972.17 150.71 Q1974.56 153.002 1978.8 153.002 Q1981.25 153.002 1983.54 152.4 Q1985.86 151.798 1988.12 150.595 L1988.12 154.622 Q1985.83 155.595 1983.42 156.104 Q1981.02 156.613 1978.54 156.613 Q1972.34 156.613 1968.7 153.002 Q1965.09 149.391 1965.09 143.234 Q1965.09 136.868 1968.52 133.141 Q1971.97 129.391 1977.8 129.391 Q1983.03 129.391 1986.06 132.771 Q1989.12 136.127 1989.12 141.914 M1984.86 140.664 Q1984.81 137.169 1982.89 135.086 Q1980.99 133.002 1977.85 133.002 Q1974.28 133.002 1972.13 135.016 Q1970 137.03 1969.67 140.687 L1984.86 140.664 Z" fill="#000000" fill-rule="nonzero" fill-opacity="1" /></svg>
